
Genre:Drama | Thriller
Language:English/Japanese
IMDb:http://www.imdb.com/title/tt1191111/
Source:ELEKTRI4KA/Audio:Noir.Thx

General
Complete name :Enter.the.Void.R5.XviD.Ac3.Feel-Free
Format : AVI
Format/Info : Audio Video Interleave
Format profile : OpenDML
File size : 2.06 GiB
Duration : 2h 35mn
Overall bit rate : 1 898 Kbps
Video #0
Codec ID : XVID
Codec ID/Hint : XviD
Duration : 2h 35mn
Bit rate : 1 438 Kbps
Width : 720 pixels
Height : 304 pixels
Display aspect ratio : 2.35:1
Frame rate : 25.000 fps
Resolution : 24 bits
Colorimetry : 4:2:0
Scan type : Progressive
Bits/(Pixel*Frame) : 0.263
Stream size : 1.56 GiB (76%)
Writing library : XviD 1.2.1 (UTC 2008-12-04)
Audio #1
ID : 1
Format : AC-3
Format/Info : Audio Coding 3
Codec ID : 2000
Duration : 2h 34mn
Bit rate mode : Constant
Bit rate : 448 Kbps
Channel(s) : 6 channels
Channel positions : Front: L C R, Surround: L R, LFE
Sampling rate : 48.0 KHz
Stream size : 496 MiB (24%)
Alignment : Split accross interleaves
Interleave, duration : 40 ms (1.00 video frame)
Interleave, preload duration : 500 ms

Plot:
A drug-dealing teen is killed in Japan, after which he reappears as a ghost to watch over his sister

screens
 
http://rapidhdd.com/images/708135vlcsnap-2010-11-12-11h02m53s147.png
 
http://www.rapidhdd.com/images/863903vlcsnap-2010-11-12-11h05m08s225.png
 
http://www.rapidhdd.com/images/693833vlcsnap-2010-11-12-11h24m29s56.png
 
http://www.rapidhdd.com/images/844797vlcsnap-2010-11-12-11h24m47s227.png